<svg width="506" height="411" viewBox="0 0 506 411" fill="none" xmlns="http://www.w3.org/2000/svg">
<rect width="320.388" height="250" rx="30" fill="white"/>
<rect x="27.3059" y="33.374" width="266.383" height="15.7767" fill="#D9D9D9"/>
<rect x="27.3059" y="64.9268" width="266.383" height="15.7767" fill="#D9D9D9"/>
<rect x="27.3059" y="96.4805" width="266.383" height="15.7767" fill="#D9D9D9"/>
<rect x="27.3059" y="128.034" width="266.383" height="15.7767" fill="#D9D9D9"/>
<rect x="27.3059" y="159.587" width="266.383" height="15.7767" fill="#D9D9D9"/>
<path d="M97.4395 361.088V362C97.4408 363.51 98.041 364.959 99.1085 366.027C100.176 367.095 101.623 367.696 103.133 367.697H151.414C152.924 367.696 154.372 367.096 155.44 366.028C156.507 364.959 157.107 363.511 157.108 362V361.088C157.111 359.755 156.643 358.464 155.787 357.442C155.502 357.103 155.18 356.797 154.826 356.531H129.783C129.481 356.531 129.192 356.411 128.978 356.197C128.765 355.983 128.645 355.694 128.645 355.392H103.133C101.624 355.394 100.177 355.995 99.1094 357.062C98.0421 358.13 97.4415 359.578 97.4395 361.088Z" fill="#3F3D56"/>
<path d="M124.087 409.4H130.009V367.471H124.087V409.4Z" fill="#3F3D56"/>
<path d="M107.235 409.192C107.235 409.832 116.208 409.44 127.277 409.44C138.345 409.44 147.318 409.832 147.318 409.192C147.318 408.552 138.345 403.476 127.277 403.476C116.208 403.476 107.235 408.552 107.235 409.192Z" fill="#3F3D56"/>
<path d="M106.732 360.128L126.937 363.354L150.413 367.105L158.552 368.404C159.334 368.528 160.132 368.336 160.773 367.871C161.413 367.406 161.843 366.706 161.968 365.925L162.337 363.619L162.679 361.472L162.961 359.704C163.025 359.308 163.008 358.904 162.911 358.516C162.814 358.127 162.639 357.762 162.397 357.443C162.11 357.051 161.729 356.738 161.29 356.532H129.784C129.482 356.532 129.192 356.412 128.979 356.198C128.765 355.984 128.645 355.695 128.645 355.392V354.495C128.645 354.192 128.765 353.903 128.979 353.689C129.192 353.475 129.482 353.355 129.784 353.355H142.164L136.457 352.444L118.911 349.641L108.668 348.005C107.884 347.881 107.084 348.072 106.442 348.538C105.799 349.004 105.368 349.705 105.242 350.489L104.249 356.705C104.128 357.488 104.321 358.287 104.786 358.928C105.251 359.569 105.95 360 106.732 360.128Z" fill="#D3DFF5"/>
<path d="M150.413 359.261V393.994C150.414 394.785 150.729 395.544 151.288 396.104C151.847 396.663 152.606 396.978 153.396 396.979H159.696C160.487 396.978 161.245 396.663 161.804 396.104C162.364 395.544 162.678 394.785 162.679 393.994V359.261C162.68 358.602 162.461 357.962 162.055 357.443C161.755 357.044 161.356 356.73 160.898 356.531H152.189C151.733 356.731 151.337 357.045 151.037 357.443C150.632 357.962 150.413 358.602 150.413 359.261Z" fill="#D3DFF5"/>
<path d="M131.428 300.474C131.46 300.783 131.54 301.086 131.665 301.372C131.854 301.807 132.147 302.19 132.516 302.488L132.53 302.497L150.504 317.086L150.768 317.296L154.489 320.317L155.614 321.229H175.077L173.956 320.317L158.575 307.83L148.267 299.462L140.246 292.954C139.777 292.571 139.201 292.342 138.597 292.298C138.595 292.295 138.592 292.293 138.588 292.293C138.409 292.28 138.229 292.283 138.05 292.302C137.783 292.329 137.521 292.394 137.272 292.494C137.101 292.555 136.939 292.638 136.789 292.74C136.506 292.912 136.254 293.133 136.046 293.391L132.138 298.209L132.079 298.286C131.831 298.59 131.646 298.939 131.534 299.315C131.423 299.69 131.386 300.084 131.428 300.474Z" fill="#D3DFF5"/>
<path d="M132.53 302.498C132.869 303.345 133.361 304.123 133.983 304.79L145.949 317.652C146.238 317.917 146.576 318.124 146.945 318.258C147.314 318.392 147.706 318.453 148.098 318.435C148.491 318.418 148.876 318.323 149.231 318.157C149.587 317.99 149.906 317.755 150.171 317.465L150.503 317.087L150.649 316.923L155.819 311.121L158.042 308.623C158.189 308.469 158.318 308.298 158.424 308.113C158.479 308.022 158.529 307.926 158.575 307.83C158.761 307.404 158.847 306.941 158.825 306.477C158.81 306.082 158.715 305.693 158.547 305.336C158.379 304.978 158.14 304.657 157.846 304.394L143.972 293.784C142.441 292.609 140.513 292.077 138.597 292.298C138.595 292.296 138.591 292.294 138.588 292.294C138.162 292.347 137.742 292.436 137.331 292.558C137.148 292.608 136.971 292.672 136.789 292.74C135.612 293.183 134.569 293.921 133.76 294.882C132.879 295.918 132.298 297.176 132.082 298.518C131.865 299.861 132.02 301.237 132.53 302.498Z" fill="#2F2E41"/>
<path d="M126.848 281.706C139.457 281.706 149.678 271.479 149.678 258.863C149.678 246.247 139.457 236.02 126.848 236.02C114.24 236.02 104.019 246.247 104.019 258.863C104.019 271.479 114.24 281.706 126.848 281.706Z" fill="#D3DFF5"/>
<path d="M120.769 356.978L129.237 358.327L129.428 358.359L142.3 360.414L150.412 361.713L162.337 363.618L162.679 363.673L164.45 363.955L172.59 365.254C173.371 365.378 174.17 365.186 174.81 364.721C175.451 364.256 175.881 363.557 176.006 362.775L176.717 358.327L176.999 356.559C176.999 356.549 177.004 356.54 177.004 356.531H129.783C129.482 356.531 129.192 356.411 128.978 356.197C128.765 355.984 128.645 355.694 128.645 355.392V354.494C128.645 354.192 128.765 353.902 128.978 353.688C129.192 353.475 129.482 353.355 129.783 353.355H144.705V348.373L143.794 348.227L139.294 347.507L122.701 344.859C121.919 344.735 121.119 344.926 120.478 345.391C119.836 345.856 119.406 346.556 119.28 347.339L118.911 349.64L118.287 353.56C118.165 354.342 118.357 355.141 118.823 355.782C119.288 356.422 119.988 356.853 120.769 356.978Z" fill="#D3DFF5"/>
<path d="M95.7773 336.798C95.7773 355.42 97.6678 366.558 126.819 363.368C126.86 363.364 126.896 363.359 126.937 363.355C132.137 362.841 137.279 361.857 142.301 360.415C144.911 359.652 147.447 358.658 149.88 357.443C150.454 357.152 151.005 356.846 151.547 356.532H129.784C129.482 356.532 129.192 356.412 128.979 356.198C128.765 355.984 128.645 355.695 128.645 355.393V354.495C128.645 354.193 128.765 353.903 128.979 353.689C129.192 353.476 129.482 353.355 129.784 353.355H144.706V324.57C144.707 323.684 145.059 322.835 145.685 322.209C146.311 321.583 147.159 321.231 148.044 321.229H160.183C160.078 320.929 159.974 320.623 159.86 320.318C158.721 317.165 157.371 314.092 155.82 311.121C153.694 306.994 151.164 303.089 148.268 299.463C146.25 296.935 143.986 294.616 141.508 292.54C136.94 288.766 131.966 286.433 126.919 286.433C108.308 286.433 95.7773 318.176 95.7773 336.798Z" fill="#2F2E41"/>
<path d="M126.369 267.329L126.346 266.475C127.933 266.431 129.332 266.331 130.384 265.563C130.682 265.333 130.927 265.041 131.102 264.707C131.277 264.374 131.379 264.006 131.399 263.63C131.418 263.4 131.383 263.169 131.298 262.955C131.213 262.741 131.079 262.549 130.908 262.395C130.21 261.805 129.087 261.996 128.268 262.371L127.562 262.695L128.916 252.797L129.761 252.913L128.61 261.333C129.081 261.158 129.588 261.103 130.086 261.175C130.584 261.247 131.055 261.442 131.458 261.743C131.729 261.979 131.942 262.276 132.08 262.608C132.217 262.941 132.276 263.301 132.252 263.66C132.227 264.166 132.092 264.66 131.856 265.107C131.62 265.555 131.289 265.946 130.887 266.252C129.536 267.24 127.78 267.289 126.369 267.329Z" fill="#2F2E41"/>
<path d="M138.535 253.639H133.94V254.492H138.535V253.639Z" fill="#2F2E41"/>
<path d="M124.032 253.639H119.438V254.492H124.032V253.639Z" fill="#2F2E41"/>
<path d="M108.629 252.586C110.404 249.912 113.529 248.778 116.609 248.502C120.077 248.192 123.428 248.861 126.813 249.511C130.54 250.227 134.483 250.896 138.237 249.991C139.898 249.607 141.45 248.85 142.776 247.778C144.102 246.707 145.168 245.347 145.893 243.803C147.267 240.791 147.564 237.397 146.732 234.192C145.751 230.789 143.759 227.764 141.021 225.519C135.617 220.895 128.305 218.817 121.272 219.013C114.266 219.194 107.494 221.576 101.917 225.822C96.3298 230.222 92.3984 236.387 90.764 243.31C89.0551 250.177 89.6118 257.412 92.351 263.936C93.8901 267.508 96.1159 270.729 97.8334 274.211C99.4325 277.453 100.664 281.223 99.6691 284.839C99.2316 286.452 98.3913 287.928 97.2273 289.127C96.0633 290.326 94.6136 291.209 93.0147 291.693C91.5506 292.078 90.0014 291.976 88.6 291.404C87.1986 290.831 86.0209 289.819 85.244 288.519C83.6353 285.981 83.5968 282.657 86.0121 280.607C86.6211 280.082 87.3305 279.686 88.0971 279.444C88.8638 279.202 89.6717 279.118 90.4717 279.198C91.2717 279.278 92.0471 279.519 92.7508 279.909C93.4545 280.298 94.0717 280.826 94.5649 281.461C95.5448 282.735 95.9834 284.343 95.7857 285.938C95.6667 286.744 96.8996 287.092 97.0197 286.279C97.3079 284.592 96.9882 282.858 96.1177 281.385C95.2472 279.912 93.8824 278.796 92.2663 278.236C90.6503 277.676 88.8881 277.708 87.2936 278.327C85.6992 278.946 84.376 280.111 83.56 281.615C82.1034 284.355 82.8893 287.66 84.7383 290.002C85.6922 291.25 86.9852 292.196 88.4626 292.728C89.9399 293.259 91.539 293.354 93.0686 293C96.4342 292.222 99.1875 289.545 100.482 286.4C101.924 282.898 101.263 278.991 99.8581 275.593C98.3391 271.92 96.0834 268.626 94.2996 265.087C92.6844 261.888 91.6566 258.425 91.2651 254.863C90.4816 247.71 92.1041 240.499 95.8761 234.372C99.7207 228.34 105.589 223.878 112.426 221.786C119.215 219.604 126.543 219.798 133.206 222.336C139.709 224.9 145.988 230.487 145.912 237.99C145.88 241.195 144.691 244.464 142.237 246.602C139.305 249.157 135.222 249.375 131.536 248.977C127.826 248.575 124.224 247.491 120.498 247.215C117.258 246.974 113.762 247.224 110.869 248.835C109.521 249.587 108.374 250.652 107.524 251.94C107.067 252.628 108.175 253.27 108.629 252.586Z" fill="#2F2E41"/>
<path d="M112.261 308.495C112.297 308.578 112.338 308.658 112.384 308.737C112.43 308.818 112.48 308.897 112.534 308.974L122.518 323.353L123.293 324.469L131.437 336.191L139.294 347.507L142.473 352.092C142.559 352.217 142.655 352.335 142.76 352.443C143.252 352.961 143.913 353.284 144.623 353.355H144.705V333.798L143.794 332.486L133.578 317.774L122.605 301.973C122.153 301.323 121.462 300.879 120.683 300.738C119.905 300.597 119.102 300.771 118.451 301.221L115.085 303.559L113.276 304.817C112.705 305.215 112.29 305.801 112.105 306.473C111.919 307.144 111.975 307.86 112.261 308.495Z" fill="#D3DFF5"/>
<path d="M110.699 308.144L111.15 309.051L111.154 309.055L111.277 309.297L118.597 323.835C119.009 324.512 119.673 324.997 120.442 325.185C121.211 325.372 122.023 325.248 122.701 324.838L123.175 324.542L123.293 324.469L132.731 318.544C133.067 318.34 133.361 318.071 133.593 317.753C133.826 317.435 133.993 317.074 134.085 316.691C134.177 316.308 134.193 315.911 134.131 315.522C134.069 315.132 133.93 314.759 133.723 314.424L123.357 300.36C122.341 298.981 120.881 297.995 119.224 297.567C117.566 297.139 115.812 297.294 114.256 298.008C113.905 298.166 113.567 298.352 113.245 298.564C111.721 299.571 110.62 301.103 110.151 302.869C109.681 304.635 109.876 306.512 110.699 308.144Z" fill="#2F2E41"/>
<path d="M164.451 356.531V390.845C164.452 391.636 164.767 392.395 165.326 392.954C165.886 393.514 166.644 393.829 167.435 393.83H173.734C174.525 393.829 175.283 393.514 175.842 392.954C176.402 392.395 176.716 391.636 176.717 390.845V356.531H164.451Z" fill="#D3DFF5"/>
<path d="M127.734 354.494V355.392C127.735 355.867 127.9 356.326 128.2 356.693C128.5 357.06 128.918 357.312 129.383 357.407C129.447 357.416 129.511 357.429 129.575 357.434C129.643 357.438 129.711 357.443 129.784 357.443H200.002C201.129 357.443 202.21 356.995 203.008 356.197C203.806 355.4 204.254 354.319 204.256 353.191V324.57C204.254 323.441 203.806 322.36 203.008 321.563C202.21 320.766 201.129 320.318 200.002 320.317H148.044C146.918 320.319 145.837 320.767 145.041 321.564C144.244 322.361 143.796 323.442 143.795 324.57V352.443H129.784C129.24 352.443 128.719 352.659 128.335 353.044C127.95 353.429 127.734 353.95 127.734 354.494Z" fill="white"/>
<path d="M127.734 354.494V355.392C127.735 355.867 127.9 356.326 128.2 356.693C128.5 357.06 128.918 357.312 129.383 357.407C129.447 357.416 129.511 357.429 129.575 357.434C129.643 357.438 129.711 357.443 129.784 357.443H200.002C201.129 357.443 202.21 356.995 203.008 356.197C203.806 355.4 204.254 354.319 204.256 353.191V324.57C204.254 323.441 203.806 322.36 203.008 321.563C202.21 320.766 201.129 320.318 200.002 320.317H148.044C146.918 320.319 145.837 320.767 145.041 321.564C144.244 322.361 143.796 323.442 143.795 324.57V352.443H129.784C129.24 352.443 128.719 352.659 128.335 353.044C127.95 353.429 127.734 353.95 127.734 354.494ZM128.645 355.392V354.494C128.645 354.192 128.765 353.902 128.979 353.689C129.193 353.475 129.482 353.355 129.784 353.355H144.706V324.57C144.707 323.684 145.059 322.835 145.685 322.209C146.311 321.583 147.159 321.23 148.044 321.229H200.002C200.888 321.229 201.737 321.581 202.364 322.207C202.991 322.834 203.343 323.683 203.345 324.57V353.191C203.343 354.077 202.991 354.927 202.364 355.553C201.737 356.179 200.888 356.531 200.002 356.531H129.784C129.482 356.531 129.193 356.411 128.979 356.198C128.765 355.984 128.645 355.694 128.645 355.392Z" fill="#3F3D56"/>
<path d="M174.024 342.386C175.959 342.386 177.527 340.816 177.527 338.881C177.527 336.945 175.959 335.376 174.024 335.376C172.09 335.376 170.521 336.945 170.521 338.881C170.521 340.816 172.09 342.386 174.024 342.386Z" fill="#D3DFF5"/>
<path d="M144.72 352.927H143.809V357.029H144.72V352.927Z" fill="#3F3D56"/>
<path d="M241.33 410.438H27.5611C27.4123 410.438 27.2696 410.379 27.1643 410.274C27.0591 410.169 27 410.026 27 409.877C27 409.728 27.0591 409.585 27.1643 409.48C27.2696 409.375 27.4123 409.315 27.5611 409.315H241.33C241.479 409.315 241.622 409.375 241.727 409.48C241.832 409.585 241.891 409.728 241.891 409.877C241.891 410.026 241.832 410.169 241.727 410.274C241.622 410.379 241.479 410.438 241.33 410.438Z" fill="#3F3D56"/>
<path d="M504.945 117.013H262.561C262.412 117.013 262.27 116.954 262.164 116.849C262.059 116.744 262 116.601 262 116.452C262 116.303 262.059 116.16 262.164 116.055C262.27 115.95 262.412 115.891 262.561 115.891H504.945C505.094 115.891 505.237 115.95 505.342 116.055C505.447 116.16 505.506 116.303 505.506 116.452C505.506 116.601 505.447 116.744 505.342 116.849C505.237 116.954 505.094 117.013 504.945 117.013Z" fill="#CACACA"/>
<path d="M283.872 109.154C286.674 109.154 288.946 106.881 288.946 104.077C288.946 101.273 286.674 99 283.872 99C281.07 99 278.798 101.273 278.798 104.077C278.798 106.881 281.07 109.154 283.872 109.154Z" fill="#3F3D56"/>
<path d="M301.4 109.154C304.202 109.154 306.474 106.881 306.474 104.077C306.474 101.273 304.202 99 301.4 99C298.598 99 296.326 101.273 296.326 104.077C296.326 106.881 298.598 109.154 301.4 109.154Z" fill="#3F3D56"/>
<path d="M318.928 109.154C321.731 109.154 324.002 106.881 324.002 104.077C324.002 101.273 321.731 99 318.928 99C316.126 99 313.854 101.273 313.854 104.077C313.854 106.881 316.126 109.154 318.928 109.154Z" fill="#3F3D56"/>
<path d="M308.756 203.572C302.86 203.572 297.096 201.823 292.193 198.545C287.29 195.267 283.469 190.608 281.213 185.158C278.956 179.707 278.366 173.709 279.516 167.923C280.666 162.136 283.506 156.821 287.675 152.649C291.844 148.477 297.156 145.636 302.94 144.485C308.723 143.334 314.717 143.925 320.164 146.183C325.612 148.44 330.268 152.264 333.544 157.169C336.82 162.075 338.568 167.842 338.568 173.742C338.559 181.651 335.416 189.233 329.827 194.825C324.238 200.417 316.66 203.563 308.756 203.572ZM308.756 145.035C303.082 145.035 297.535 146.719 292.816 149.873C288.098 153.027 284.421 157.511 282.249 162.756C280.078 168.002 279.51 173.774 280.617 179.342C281.724 184.911 284.456 190.026 288.469 194.041C292.481 198.056 297.593 200.79 303.159 201.898C308.724 203.005 314.493 202.437 319.735 200.264C324.978 198.091 329.458 194.412 332.611 189.691C335.763 184.97 337.446 179.42 337.446 173.742C337.437 166.131 334.412 158.834 329.033 153.453C323.655 148.071 316.362 145.044 308.756 145.035Z" fill="#CACACA"/>
<path d="M307.095 353.134C314.752 353.134 320.959 346.924 320.959 339.263C320.959 331.601 314.752 325.391 307.095 325.391C299.438 325.391 293.231 331.601 293.231 339.263C293.231 346.924 299.438 353.134 307.095 353.134Z" fill="#E4E4E4"/>
<path d="M299.393 344.404L299.379 343.886C300.343 343.859 301.192 343.798 301.831 343.331C302.012 343.192 302.161 343.014 302.267 342.812C302.374 342.609 302.435 342.386 302.448 342.158C302.459 342.018 302.438 341.878 302.386 341.748C302.334 341.617 302.253 341.501 302.149 341.407C301.908 341.261 301.632 341.183 301.35 341.18C301.068 341.178 300.79 341.251 300.546 341.393L300.118 341.59L300.94 335.579L301.453 335.649L300.754 340.762C301.04 340.656 301.348 340.623 301.65 340.667C301.952 340.71 302.239 340.829 302.484 341.012C302.648 341.155 302.777 341.335 302.861 341.537C302.945 341.739 302.98 341.958 302.966 342.176C302.95 342.483 302.868 342.783 302.725 343.055C302.582 343.327 302.381 343.564 302.137 343.75C301.316 344.35 300.25 344.38 299.393 344.404Z" fill="#2F2E41"/>
<path d="M306.782 336.091H303.992V336.609H306.782V336.091Z" fill="#2F2E41"/>
<path d="M297.975 336.091H295.185V336.609H297.975V336.091Z" fill="#2F2E41"/>
<path d="M305.009 330.304C301.664 332.601 296.527 331.335 295.011 327.454C294.641 326.51 294.475 325.498 294.526 324.485C294.577 323.472 294.843 322.481 295.305 321.579C295.86 320.634 296.614 319.822 297.516 319.2C298.417 318.578 299.444 318.162 300.524 317.98C303.393 317.385 306.358 318.184 308.98 319.344C309.074 319.393 309.182 319.412 309.288 319.399C309.393 319.385 309.492 319.339 309.571 319.268C312.075 317.27 315.714 318.137 318.282 319.534C321.059 321.094 323.407 323.317 325.118 326.005C326.863 328.67 327.953 331.71 328.3 334.877C328.617 338.299 328.058 341.747 326.677 344.893C325.295 348.04 323.135 350.784 320.401 352.865C319.904 353.237 320.39 354.085 320.894 353.708C323.654 351.667 325.87 348.977 327.346 345.876C328.821 342.774 329.511 339.357 329.354 335.926C329.197 332.495 328.198 329.156 326.445 326.202C324.692 323.249 322.239 320.773 319.303 318.994C316.223 317.14 311.931 316.144 308.881 318.577L309.472 318.501C306.85 317.34 303.977 316.521 301.087 316.902C298.633 317.225 296.221 318.403 294.813 320.5C294.195 321.463 293.79 322.547 293.624 323.679C293.458 324.811 293.536 325.966 293.852 327.066C294.161 328.153 294.717 329.153 295.478 329.988C296.239 330.823 297.184 331.469 298.237 331.877C299.417 332.348 300.694 332.528 301.958 332.401C303.223 332.274 304.438 331.844 305.501 331.147C306.016 330.794 305.528 329.947 305.009 330.304Z" fill="#2F2E41"/>
<path d="M308.065 191.922C315.623 191.922 321.75 185.792 321.75 178.229C321.75 170.667 315.623 164.536 308.065 164.536C300.507 164.536 294.38 170.667 294.38 178.229C294.38 185.792 300.507 191.922 308.065 191.922Z" fill="#E4E4E4"/>
<path d="M304.835 183.977C303.948 183.952 302.843 183.922 301.993 183.3C301.74 183.107 301.532 182.861 301.383 182.58C301.235 182.298 301.15 181.987 301.134 181.669C301.119 181.444 301.156 181.217 301.243 181.008C301.329 180.798 301.463 180.612 301.633 180.463C301.887 180.274 302.184 180.151 302.497 180.106C302.81 180.061 303.129 180.095 303.425 180.205L302.701 174.909L303.233 174.836L304.084 181.062L303.64 180.858C303.388 180.711 303.1 180.635 302.808 180.638C302.516 180.64 302.23 180.722 301.98 180.873C301.872 180.97 301.788 181.091 301.734 181.226C301.681 181.361 301.659 181.506 301.671 181.651C301.684 181.887 301.747 182.118 301.858 182.328C301.968 182.538 302.122 182.721 302.31 182.866C302.971 183.35 303.851 183.412 304.85 183.44L304.835 183.977Z" fill="#2F2E41"/>
<path d="M300.072 175.365H297.182V175.902H300.072V175.365Z" fill="#2F2E41"/>
<path d="M309.195 175.365H306.305V175.902H309.195V175.365Z" fill="#2F2E41"/>
<path d="M309.334 168.106C307.672 170.282 305.032 171.742 302.242 171.396C300.948 171.263 299.729 170.724 298.759 169.856C297.79 168.987 297.119 167.834 296.844 166.562C296.604 165.308 296.669 164.014 297.033 162.79C297.397 161.567 298.05 160.448 298.936 159.53C300.817 157.551 303.508 156.486 306.171 156.121C308.69 155.825 311.243 156.064 313.663 156.823C316.083 157.582 318.316 158.844 320.215 160.525C322.131 162.174 323.66 164.225 324.694 166.533C325.69 168.823 326.164 171.307 326.083 173.803C326.016 176.286 325.448 178.73 324.411 180.986C323.374 183.243 321.89 185.266 320.05 186.932C319.587 187.338 319.102 187.717 318.599 188.07C318.174 188.368 317.771 187.67 318.192 187.374C320.068 186.004 321.647 184.268 322.836 182.272C324.025 180.276 324.799 178.06 325.111 175.757C325.461 173.449 325.305 171.093 324.654 168.852C324.002 166.611 322.872 164.538 321.34 162.778C319.793 161.014 317.911 159.575 315.803 158.547C313.694 157.519 311.402 156.921 309.06 156.789C304.351 156.584 298.467 158.687 297.585 163.932C297.191 166.283 298.069 168.754 300.222 169.931C301.362 170.505 302.646 170.727 303.913 170.569C305.179 170.412 306.37 169.881 307.334 169.045C307.819 168.648 308.257 168.197 308.639 167.7C308.95 167.294 309.649 167.694 309.334 168.106Z" fill="#2F2E41"/>
<path d="M308.756 282.261C302.86 282.261 297.096 280.512 292.193 277.234C287.29 273.956 283.469 269.298 281.213 263.847C278.956 258.396 278.366 252.399 279.516 246.612C280.666 240.826 283.506 235.51 287.675 231.339C291.844 227.167 297.156 224.326 302.94 223.175C308.723 222.024 314.717 222.614 320.164 224.872C325.612 227.13 330.268 230.953 333.544 235.859C336.82 240.764 338.568 246.532 338.568 252.431C338.559 260.34 335.416 267.922 329.827 273.514C324.238 279.107 316.66 282.252 308.756 282.261ZM308.756 223.724C303.082 223.724 297.535 225.408 292.816 228.562C288.098 231.717 284.421 236.2 282.249 241.446C280.078 246.691 279.51 252.463 280.617 258.032C281.724 263.601 284.456 268.716 288.469 272.73C292.481 276.745 297.593 279.479 303.159 280.587C308.724 281.695 314.493 281.126 319.735 278.953C324.978 276.781 329.458 273.101 332.611 268.38C335.763 263.659 337.446 258.109 337.446 252.431C337.437 244.82 334.412 237.524 329.033 232.142C323.655 226.76 316.362 223.733 308.756 223.724Z" fill="#CACACA"/>
<path d="M308.756 366.228C302.86 366.228 297.096 364.479 292.193 361.201C287.29 357.923 283.469 353.264 281.213 347.814C278.956 342.363 278.366 336.365 279.516 330.579C280.667 324.792 283.506 319.477 287.675 315.305C291.845 311.134 297.157 308.293 302.94 307.142C308.723 305.991 314.717 306.581 320.165 308.839C325.612 311.097 330.268 314.92 333.544 319.826C336.82 324.731 338.568 330.499 338.568 336.398C338.559 344.307 335.415 351.889 329.827 357.481C324.238 363.074 316.66 366.219 308.756 366.228ZM308.756 307.691C303.082 307.691 297.535 309.375 292.816 312.529C288.098 315.683 284.421 320.167 282.25 325.412C280.078 330.658 279.51 336.43 280.617 341.999C281.724 347.567 284.456 352.682 288.469 356.697C292.481 360.712 297.593 363.446 303.158 364.554C308.724 365.661 314.493 365.093 319.735 362.92C324.977 360.747 329.458 357.068 332.611 352.347C335.763 347.626 337.446 342.076 337.446 336.398C337.437 328.787 334.412 321.491 329.033 316.109C323.655 310.727 316.362 307.7 308.756 307.691Z" fill="#CACACA"/>
<path d="M306.726 269.448C314.546 269.448 320.884 263.105 320.884 255.282C320.884 247.458 314.546 241.115 306.726 241.115C298.907 241.115 292.568 247.458 292.568 255.282C292.568 263.105 298.907 269.448 306.726 269.448Z" fill="#E4E4E4"/>
<path d="M302.015 261.229C301.098 261.203 299.955 261.171 299.075 260.528C298.813 260.329 298.598 260.074 298.445 259.783C298.291 259.492 298.203 259.17 298.187 258.841C298.171 258.607 298.21 258.373 298.299 258.157C298.389 257.94 298.527 257.747 298.704 257.593C298.966 257.397 299.273 257.27 299.597 257.224C299.92 257.177 300.251 257.212 300.557 257.326L299.808 251.847L300.358 251.771L301.239 258.213L300.78 258.002C300.519 257.85 300.221 257.771 299.919 257.774C299.616 257.776 299.32 257.861 299.062 258.017C298.95 258.118 298.864 258.243 298.808 258.382C298.753 258.522 298.73 258.672 298.742 258.822C298.755 259.067 298.821 259.306 298.936 259.523C299.05 259.74 299.209 259.93 299.403 260.079C300.088 260.58 300.998 260.644 302.031 260.673L302.015 261.229Z" fill="#2F2E41"/>
<path d="M297.088 252.319H294.098V252.875H297.088V252.319Z" fill="#2F2E41"/>
<path d="M306.526 252.319H303.536V252.875H306.526V252.319Z" fill="#2F2E41"/>
<path d="M307.439 269.891L317.232 266.087C318.833 265.465 320.444 264.862 322.036 264.219C322.719 263.981 323.347 263.611 323.886 263.129C324.355 262.632 324.674 262.013 324.808 261.343C325.074 259.868 325.16 258.366 325.062 256.871C325.043 255.267 324.911 253.667 324.667 252.082C324.239 249.103 323.235 246.237 321.71 243.643C318.964 239.134 314.232 235.742 308.79 236.013C306.232 236.102 303.784 237.075 301.863 238.766C301.668 239 301.449 239.212 301.21 239.4C301.043 239.463 300.862 239.475 300.689 239.435C300.461 239.421 300.232 239.409 300.003 239.402C299.209 239.368 298.414 239.402 297.625 239.502C296.188 239.657 294.827 240.223 293.703 241.131C293.211 241.523 292.801 242.007 292.496 242.557C292.192 243.107 291.998 243.712 291.927 244.337C291.89 244.917 291.985 245.498 292.207 246.035C292.43 246.572 292.772 247.05 293.208 247.434C294.377 248.419 296.044 248.073 297.445 247.999L302.579 247.727L305.18 247.589C305.716 247.56 305.714 248.394 305.18 248.422L298.266 248.789C297.147 248.897 296.023 248.942 294.898 248.925C294.044 248.886 293.228 248.558 292.585 247.994C291.998 247.454 291.56 246.771 291.315 246.012C291.07 245.252 291.026 244.442 291.187 243.66C291.4 242.82 291.787 242.034 292.323 241.353C292.859 240.672 293.532 240.111 294.298 239.706C296.321 238.565 298.736 238.455 301 238.624L300.705 238.746C303.265 235.997 307.187 234.836 310.868 235.242C314.756 235.671 318.213 237.841 320.697 240.808C323.466 244.116 324.976 248.241 325.562 252.483C325.868 254.773 325.968 257.085 325.863 259.393C325.867 260.411 325.693 261.422 325.349 262.38C324.956 263.312 324.245 264.074 323.343 264.531C322.309 265.031 321.246 265.468 320.159 265.84L316.551 267.241L309.465 269.994L307.661 270.694C307.161 270.888 306.944 270.083 307.439 269.891Z" fill="#2F2E41"/>
<path d="M318.534 237.266C318.534 236.415 318.787 235.582 319.259 234.874C319.732 234.166 320.404 233.615 321.19 233.289C321.977 232.963 322.842 232.878 323.677 233.044C324.511 233.21 325.278 233.62 325.88 234.222C326.482 234.824 326.891 235.591 327.057 236.426C327.223 237.262 327.138 238.127 326.813 238.914C326.487 239.701 325.935 240.373 325.228 240.846C324.52 241.319 323.688 241.572 322.837 241.572C321.696 241.571 320.603 241.117 319.796 240.309C318.989 239.502 318.535 238.408 318.534 237.266ZM319.367 237.266C319.367 237.953 319.571 238.624 319.952 239.195C320.333 239.766 320.875 240.211 321.509 240.474C322.143 240.737 322.841 240.806 323.514 240.672C324.187 240.538 324.806 240.207 325.291 239.722C325.776 239.236 326.107 238.617 326.241 237.944C326.374 237.27 326.306 236.572 326.043 235.938C325.78 235.303 325.336 234.761 324.765 234.379C324.194 233.998 323.523 233.794 322.837 233.794C321.917 233.795 321.035 234.161 320.385 234.812C319.734 235.463 319.368 236.346 319.367 237.266Z" fill="#2F2E41"/>
<path d="M483.386 186.263H385.407C384.183 186.263 383.009 185.776 382.144 184.91C381.278 184.044 380.792 182.87 380.792 181.645C380.792 180.42 381.278 179.246 382.144 178.38C383.009 177.514 384.183 177.027 385.407 177.027H483.386C483.992 177.027 484.592 177.147 485.152 177.379C485.712 177.611 486.22 177.951 486.649 178.38C487.077 178.809 487.417 179.318 487.649 179.878C487.881 180.438 488.001 181.039 488.001 181.645C488.001 182.251 487.881 182.852 487.649 183.412C487.417 183.972 487.077 184.481 486.649 184.91C486.22 185.339 485.712 185.679 485.152 185.911C484.592 186.143 483.992 186.263 483.386 186.263Z" fill="#E4E4E4"/>
<path d="M451.791 170.457H385.407C384.183 170.457 383.009 169.97 382.144 169.104C381.278 168.239 380.792 167.064 380.792 165.839C380.792 164.615 381.278 163.44 382.144 162.574C383.009 161.708 384.183 161.222 385.407 161.222H451.791C452.397 161.222 452.997 161.341 453.557 161.573C454.117 161.805 454.626 162.145 455.054 162.574C455.483 163.003 455.823 163.512 456.055 164.072C456.287 164.632 456.406 165.233 456.406 165.839C456.406 166.446 456.287 167.046 456.055 167.606C455.823 168.167 455.483 168.676 455.054 169.104C454.626 169.533 454.117 169.873 453.557 170.105C452.997 170.338 452.397 170.457 451.791 170.457Z" fill="#E4E4E4"/>
<path d="M483.386 264.952H385.407C384.183 264.952 383.009 264.466 382.144 263.6C381.278 262.734 380.792 261.559 380.792 260.334C380.792 259.11 381.278 257.935 382.144 257.069C383.009 256.203 384.183 255.717 385.407 255.717H483.386C484.61 255.717 485.783 256.203 486.649 257.069C487.514 257.935 488.001 259.11 488.001 260.334C488.001 261.559 487.514 262.734 486.649 263.6C485.783 264.466 484.61 264.952 483.386 264.952Z" fill="#E4E4E4"/>
<path d="M451.791 249.145H385.407C384.184 249.144 383.011 248.657 382.147 247.791C381.282 246.925 380.797 245.752 380.797 244.528C380.797 243.304 381.282 242.13 382.147 241.264C383.011 240.399 384.184 239.912 385.407 239.91H451.791C453.015 239.91 454.189 240.397 455.054 241.263C455.92 242.129 456.406 243.303 456.406 244.528C456.406 245.752 455.92 246.927 455.054 247.793C454.189 248.659 453.015 249.145 451.791 249.145Z" fill="#E4E4E4"/>
<path d="M483.386 348.919H385.407C384.183 348.919 383.009 348.432 382.144 347.566C381.278 346.7 380.792 345.526 380.792 344.301C380.792 343.077 381.278 341.902 382.144 341.036C383.009 340.17 384.183 339.684 385.407 339.684H483.386C484.61 339.684 485.783 340.17 486.649 341.036C487.514 341.902 488.001 343.077 488.001 344.301C488.001 345.526 487.514 346.7 486.649 347.566C485.783 348.432 484.61 348.919 483.386 348.919Z" fill="#E4E4E4"/>
<path d="M451.791 333.112H385.407C384.183 333.112 383.009 332.626 382.144 331.76C381.278 330.894 380.792 329.719 380.792 328.495C380.792 327.27 381.278 326.095 382.144 325.229C383.009 324.363 384.183 323.877 385.407 323.877H451.791C453.015 323.877 454.189 324.363 455.054 325.229C455.92 326.095 456.406 327.27 456.406 328.495C456.406 329.719 455.92 330.894 455.054 331.76C454.189 332.626 453.015 333.112 451.791 333.112Z" fill="#E4E4E4"/>
</svg>
